<?xml version="1.0" standalone="no"?>
<!DOCTYPE svg PUBLIC "-//W3C//DTD SVG 20010904//EN"
 "http://www.w3.org/TR/2001/REC-SVG-20010904/DTD/svg10.dtd">
<svg version="1.0" xmlns="http://www.w3.org/2000/svg"
 width="455.000000pt" height="392.000000pt" viewBox="0 0 455.000000 392.000000"
 preserveAspectRatio="xMidYMid meet">
<metadata>
Created by potrace 1.13, written by Peter Selinger 2001-2015
</metadata>
<g transform="translate(0.000000,392.000000) scale(0.100000,-0.100000)"
fill="#000000" stroke="none">
<path d="M1339 3916 c-2 -3 -28 -7 -57 -10 -29 -3 -56 -7 -60 -10 -5 -3 -21
-7 -36 -10 -45 -8 -158 -48 -193 -67 -18 -10 -33 -16 -33 -12 0 3 -9 -2 -21
-13 -12 -10 -24 -18 -28 -18 -20 5 -207 -136 -276 -208 -85 -88 -145 -161
-145 -176 0 -5 -7 -15 -15 -22 -20 -16 -109 -202 -130 -270 l-17 -55 -121 0
c-133 0 -121 6 -157 -80 -12 -27 -28 -63 -35 -80 l-14 -30 145 -5 145 -5 1
-90 1 -90 -106 -3 c-68 -2 -107 -7 -107 -13 0 -6 -14 -41 -32 -78 -18 -36 -33
-68 -33 -71 0 -3 -4 -10 -8 -17 -4 -6 -4 -13 0 -16 5 -2 78 -3 164 -3 l157 1
17 -55 c21 -68 110 -254 130 -270 8 -7 15 -17 15 -22 0 -37 289 -328 325 -328
3 0 28 -16 55 -35 28 -19 50 -32 50 -29 0 4 9 -1 20 -11 11 -10 20 -15 20 -12
0 4 15 -2 33 -12 32 -18 145 -58 186 -66 12 -2 30 -6 39 -9 88 -27 429 -28
470 -2 5 3 21 7 36 10 42 8 159 47 174 59 6 5 12 6 12 2 0 -5 9 0 20 10 11 10
20 14 20 10 0 -4 9 0 20 10 11 10 20 14 20 10 0 -4 9 0 20 10 11 10 20 15 20
11 0 -3 21 10 48 29 26 19 63 46 82 59 73 49 75 54 75 202 l0 134 -90 -90
c-49 -50 -105 -100 -124 -113 -19 -12 -46 -30 -60 -39 -23 -15 -108 -60 -121
-63 -3 -1 -18 -7 -35 -14 -38 -15 -59 -22 -65 -23 -3 0 -16 -4 -29 -9 -13 -5
-40 -12 -60 -15 -20 -3 -52 -9 -71 -13 -45 -9 -213 -7 -265 4 -22 4 -49 9 -60
10 -28 2 -157 46 -172 58 -7 5 -13 6 -13 2 0 -5 -9 0 -20 10 -11 10 -20 14
-20 10 0 -4 -9 0 -21 11 -12 10 -24 18 -28 18 -28 -6 -301 231 -301 262 0 6
-9 19 -20 29 -11 10 -20 23 -20 30 0 7 -9 20 -20 30 -11 10 -17 21 -15 25 3 4
-2 13 -10 20 -8 7 -15 16 -15 21 0 6 -10 34 -26 69 -7 17 -15 46 -15 55 1 7
225 10 653 10 l651 0 17 30 c9 17 23 47 29 68 7 22 19 51 27 65 l14 27 -717 3
c-440 1 -719 6 -723 12 -5 7 -6 144 -1 173 0 4 342 7 759 7 723 0 760 1 775
18 10 10 17 21 17 25 0 3 4 16 9 29 5 13 9 26 10 30 1 5 10 24 21 43 11 20 20
39 20 43 0 4 -351 7 -781 7 -429 0 -782 2 -784 6 -2 3 3 19 11 35 9 16 15 29
14 29 -10 0 38 97 79 159 14 21 31 48 38 59 31 53 187 197 263 242 10 6 25 17
34 24 9 7 16 10 16 6 0 -5 8 -1 18 7 15 13 46 29 62 32 3 1 10 4 15 7 13 8
136 48 161 53 87 16 121 20 204 21 52 0 111 -2 130 -6 19 -4 55 -11 80 -14 24
-4 48 -9 52 -12 5 -2 20 -7 35 -9 15 -3 31 -8 37 -12 6 -3 16 -7 21 -8 23 -4
115 -51 178 -92 37 -24 110 -85 161 -136 l92 -94 19 42 c10 22 28 64 41 93
l22 52 -70 68 c-77 75 -87 83 -109 98 -9 6 -36 23 -60 39 -24 16 -46 29 -49
28 -3 0 -12 5 -20 12 -13 11 -85 48 -100 51 -3 1 -18 7 -35 14 -34 13 -47 18
-57 20 -4 1 -26 8 -48 16 -22 8 -40 12 -40 10 0 -3 -12 0 -27 6 -16 6 -44 13
-63 15 -49 7 -296 15 -301 10z"/>
<path d="M2740 2240 l0 -1060 -257 0 -258 0 530 -530 530 -530 528 527 527
528 -255 3 -255 2 0 1060 0 1060 -545 0 -545 0 0 -1060z"/>
</g>
</svg>
