<?xml version="1.0" standalone="no"?>
<!DOCTYPE svg PUBLIC "-//W3C//DTD SVG 20010904//EN"
 "http://www.w3.org/TR/2001/REC-SVG-20010904/DTD/svg10.dtd">
<svg version="1.0" xmlns="http://www.w3.org/2000/svg"
 width="413.000000pt" height="419.000000pt" viewBox="0 0 413.000000 419.000000"
 preserveAspectRatio="xMidYMid meet">
<metadata>
Created by potrace 1.16, written by Peter Selinger 2001-2019
</metadata>
<g transform="translate(0.000000,419.000000) scale(0.100000,-0.100000)"
fill="#000000" stroke="none">
<path d="M1200 3534 c-63 -41 -122 -80 -130 -87 -13 -10 -19 -70 -33 -297 -9
-156 -21 -286 -26 -289 -5 -4 -93 -67 -195 -141 l-186 -135 0 -77 c0 -76 0
-78 -25 -78 -22 0 -25 -4 -25 -35 0 -31 3 -35 25 -35 23 0 25 -4 25 -45 0 -41
-2 -45 -25 -45 -22 0 -25 -4 -25 -35 l0 -36 78 3 77 3 3 33 c3 29 1 32 -22 32
-24 0 -26 3 -26 45 0 41 2 45 25 45 22 0 25 4 25 35 0 31 -3 35 -25 35 -22 0
-25 4 -25 40 l0 40 155 0 155 0 -5 -52 c-3 -29 -10 -129 -16 -222 -13 -208
-41 -375 -66 -394 -10 -7 -105 -76 -210 -153 l-193 -140 0 -89 0 -89 -28 -3
c-24 -3 -27 -7 -27 -43 0 -36 3 -40 27 -43 26 -3 28 -7 28 -47 0 -40 -2 -44
-28 -47 -24 -3 -27 -7 -27 -43 l0 -40 90 0 90 0 0 40 c0 36 -3 40 -27 43 -26
3 -28 7 -28 47 0 40 2 44 27 47 25 3 28 7 28 43 0 36 -3 40 -27 43 -26 3 -28
6 -28 53 l0 49 140 0 c77 0 140 -3 140 -7 0 -5 -27 -158 -60 -342 -33 -184
-60 -340 -60 -348 0 -9 18 -13 69 -13 39 0 72 4 75 8 2 4 25 154 50 332 26
179 49 335 51 348 l5 22 335 0 c193 0 336 -4 340 -9 3 -5 25 -150 50 -323 24
-172 47 -328 50 -345 l6 -33 76 0 c73 0 75 1 70 23 -12 49 -117 648 -117 667
0 20 4 20 138 18 l137 -3 3 -47 c3 -47 3 -48 -27 -48 -30 0 -31 -1 -31 -45 0
-43 1 -45 30 -45 29 0 30 -2 30 -45 0 -43 -1 -45 -30 -45 -29 0 -30 -2 -30
-45 l0 -45 90 0 90 0 0 45 c0 43 -1 45 -30 45 -29 0 -30 2 -30 45 0 43 1 45
30 45 29 0 30 2 30 45 0 43 -1 45 -30 45 l-30 0 0 93 -1 92 -208 152 -208 153
-21 127 c-18 106 -42 391 -42 497 l0 26 155 0 155 0 0 -40 c0 -36 -2 -40 -25
-40 -22 0 -25 -4 -25 -34 0 -28 4 -35 23 -38 19 -3 22 -9 22 -43 0 -34 -3 -40
-22 -43 -19 -3 -23 -10 -23 -38 l0 -34 75 0 75 0 0 35 c0 28 -4 35 -20 35 -17
0 -20 7 -20 45 0 38 3 45 20 45 16 0 20 7 20 35 0 28 -4 35 -20 35 -18 0 -20
7 -20 75 l0 76 -182 134 c-101 75 -190 141 -199 149 -12 10 -18 55 -27 222 -7
115 -15 242 -19 282 l-6 74 -129 84 c-71 46 -134 84 -141 83 -7 0 -64 -34
-127 -75z m238 -85 c87 -57 92 -62 92 -95 0 -32 -5 -38 -82 -88 -130 -83 -110
-82 -220 -12 -95 59 -98 62 -98 98 0 35 4 38 93 96 50 33 99 61 107 61 8 0 57
-27 108 -60z m-14 -386 c113 -70 113 -70 121 -115 l7 -38 -221 0 -221 0 0 38
c0 38 2 40 103 104 56 36 106 66 111 67 5 1 50 -24 100 -56z m129 -305 c4 -46
7 -104 7 -131 l0 -47 -232 2 -233 3 4 120 c2 66 5 123 8 128 2 4 102 7 222 7
l218 0 6 -82z m345 -169 c4 -11 -235 -13 -241 -1 -2 4 -8 51 -11 105 l-7 98
128 -96 c70 -53 130 -100 131 -106z m-888 124 c0 -32 -3 -75 -6 -95 l-7 -38
-119 0 c-73 0 -118 4 -116 10 3 10 228 178 241 179 4 1 7 -25 7 -56z m558
-263 l3 -55 -122 -73 -122 -73 -118 71 -119 71 0 60 0 59 238 -2 237 -3 3 -55z
m-380 -204 c35 -21 61 -40 58 -43 -10 -10 -171 -102 -173 -99 -2 2 0 49 3 105
7 100 7 101 28 88 12 -7 49 -30 84 -51z m391 -64 l1 -83 -57 32 c-32 18 -73
42 -91 54 l-33 22 83 50 c97 58 95 60 97 -75z m-120 -98 c69 -42 127 -77 129
-79 2 -1 6 -19 9 -39 l6 -36 -276 0 -276 0 6 38 c3 20 11 40 17 44 47 31 243
146 250 147 4 1 65 -33 135 -75z m176 -386 l21 -148 -328 0 c-180 0 -328 2
-328 4 0 43 44 282 53 288 6 4 136 7 287 5 l275 -2 20 -147z m245 -48 l133
-100 -116 0 c-113 0 -117 1 -122 23 -9 43 -33 177 -31 177 2 0 63 -45 136
-100z m-987 -8 l-16 -92 -115 0 -116 0 85 61 c46 34 104 76 129 95 25 18 46
31 47 30 2 -1 -5 -44 -14 -94z"/>
<path d="M2943 3363 c-4 -10 -57 -153 -118 -318 -127 -342 -128 -314 12 -295
47 6 87 10 89 8 1 -2 -42 -140 -96 -308 -55 -167 -98 -305 -96 -307 1 -1 140
185 308 415 169 229 305 418 304 420 -2 1 -62 -5 -135 -14 -72 -8 -135 -14
-140 -12 -5 2 40 95 100 208 59 112 107 205 106 206 -1 1 -75 4 -165 8 -149 6
-163 5 -169 -11z"/>
<path d="M2294 2536 c-104 -45 -76 -196 36 -196 33 0 48 6 72 30 l30 30 143 0
143 0 11 30 10 30 -149 0 -149 0 -17 29 c-28 48 -82 67 -130 47z"/>
<path d="M3052 2437 c-12 -13 -22 -26 -22 -30 0 -4 76 -7 169 -7 164 0 170 -1
185 -22 14 -19 16 -76 16 -421 l0 -399 23 -19 c12 -10 25 -18 30 -19 4 0 7
189 7 421 0 369 -2 425 -16 455 -27 56 -53 64 -222 64 -142 0 -149 -1 -170
-23z"/>
<path d="M2677 1665 c-211 -198 -243 -224 -275 -227 -34 -3 -37 -6 -37 -33 l0
-30 560 0 560 0 3 33 c3 31 2 32 -35 32 -35 0 -48 9 -141 96 l-102 96 0 94 0
94 -44 0 -45 0 -3 -50 -3 -50 -92 85 c-50 47 -95 85 -100 84 -4 0 -115 -101
-246 -224z"/>
<path d="M2520 1045 l0 -265 120 0 120 0 0 151 c0 84 5 159 10 170 10 17 23
19 153 19 98 0 147 -4 155 -12 8 -8 12 -60 12 -170 l0 -158 120 0 120 0 0 265
0 265 -405 0 -405 0 0 -265z"/>
</g>
</svg>
