<svg xmlns="http://www.w3.org/2000/svg" viewBox="0 0 1000 1000"><path d="M500 10c135.3 0 257.8 54.8 346.5 143.5C935.2 242.2 990 364.7 990 500c0 135.3-54.8 257.8-143.5 346.5C757.8 935.1 635.3 990 500 990c-135.3 0-257.8-54.9-346.5-143.5C64.8 757.8 10 635.3 10 500c0-135.3 54.8-257.8 143.5-346.5C242.2 64.8 364.7 10 500 10L500 10zM185.2 371.2C236 283.9 314 235.7 394.6 223.6l38.7 174c-33.4 21.8-55.5 59.5-55.5 102.4 0 61.7 45.7 112.6 105.1 121l13 58.4 135.5-49.6 -32.2-58.6c14.4-20 22.9-44.7 22.9-71.2 0-67.5-54.7-122.2-122.1-122.2 -2.3 0-4.5 0.1-6.8 0.2l-85.7-156c146.8-14.9 298.1 88.7 307.7 294.2 49.8 0 84.4 0 134.2 0C837.4 112.5 295.5 20.8 185.2 371.2L185.2 371.2zM542.7 544.3c0.7-0.6 1.3-1.3 2-2l0.1-0.2 0.9-0.9h0l0.8-1 0.2-0.2 0.8-1 0.1-0.2 0.8-1 0.1-0.1 0.8-1.1 0.1-0.1 0.1-0.1 0.8-1.1 0.8-1.2 0 0 0.8-1.2 0 0 0.8-1.2v-0.1l0.7-1.2c1.2-2 2.3-4.2 3.2-6.4l0.1-0.2c0.5-1.3 1-2.6 1.5-3.9l0.1-0.3c0.4-1.3 0.8-2.6 1.2-4l0-0.2 0.3-1.1 0.1-0.5 0.2-1 0.1-0.4 0.2-1.1 0.1-0.4 0.2-1.2 0-0.2 0.2-1.2 0-0.3 0.2-1.1 0-0.4 0.1-1.1 0-0.4c0.1-0.9 0.1-1.9 0.2-2.8 0.1-0.8 0.1-1.6 0.1-2.5 0-22.7-12.3-42.5-30.6-53.2l-0.8-0.4 -0.1 0 -0.4-0.2 -0.9-0.5 -0.4-0.2 -0.1-0.1 -0.4-0.2 -0.4-0.2 -0.4-0.2h0l-0.8-0.4 -0.5-0.2 -0.8-0.4 -0.1 0 -0.5-0.2 -0.4-0.2 -0.4-0.2 -0.5-0.2 -0.4-0.2 0 0 -0.2-0.1 -0.8-0.3 -0.4-0.2h-0.1l-0.1-0.1 -0.8-0.3 -0.4-0.1 -0.1 0 -0.5-0.2 -0.5-0.2 -0.4-0.1h0l-0.2-0.1 -0.8-0.2 -0.4-0.1h-0.1l-0.5-0.2 -0.4-0.1 -0.4-0.1h-0.1l-1.5-0.4h0l-1.3-0.3 -0.1 0h0 -0.1l-1.4-0.3 0 0 -1.5-0.2h-0.1l-1.5-0.2 0 0 -1.5-0.2 0 0 -1.5-0.1h-0.1 0l-0.5 0 -0.5 0h-0.5l0 0 -0.5 0 -0.5 0h-0.5l0 0h-0.5 -0.5H500h-1.4 -0.2H498l-1 0 -0.2 0 -0.8 0 -0.8 0H495c-0.9 0.1-1.8 0.2-2.7 0.3l-0.1 0h-0.1l-1.4 0.2h-0.1c-1 0.2-2 0.4-2.9 0.6h-0.1c-1 0.2-1.9 0.4-2.9 0.7h-0.1l-0.1 0 -1 0.3h-0.1l-0.6 0.2 -0.3 0 -0.9 0.3h0l-0.9 0.3 -0.5 0.2 -0.4 0.1 -0.9 0.3 -0.1 0 -0.2 0 -1.1 0.4 -0.2 0.1 -0.3 0.1 -0.9 0.4 -0.3 0.1 -0.6 0.3 -0.3 0.1 -0.5 0.2 -0.9 0.4 -0.1 0 -0.5 0.3 -0.2 0.1 -0.8 0.4 0 0 -0.8 0.4 -0.1 0 -0.7 0.4 -0.8 0.4 -0.5 0.3 -0.3 0.2 -0.6 0.4 -0.2 0.1 -0.8 0.5 -0.6 0.4 -0.2 0.1 -0.7 0.5 -0.1 0 -0.8 0.5 0 0L464 450l-0.1 0.1 -0.8 0.6 -0.1 0 -0.7 0.5 -0.2 0.1 -0.6 0.4 -0.8 0.6 -0.1 0.2 -0.6 0.4 -0.2 0.2 -0.5 0.4 -0.7 0.6 -0.7 0.6 -0.7 0.6 0 0 -0.7 0.6 -0.6 0.7 -0.7 0.7c-0.4 0.4-0.8 0.9-1.3 1.3l-0.6 0.7 -0.6 0.6 -0.1 0.1 -0.5 0.6 -0.1 0.1 -0.6 0.7 0 0 -0.5 0.7 0 0 -0.5 0.8 -0.1 0 -0.5 0.7 -0.1 0.1 -0.5 0.6 -0.5 0.8 -0.1 0.2 -0.4 0.6c-6.4 9.7-10.1 21.3-10.1 33.8 0 22.2 11.7 41.6 29.3 52.4l0.8 0.5 0.1 0.1 0.4 0.3v0l0.4 0.2 0.4 0.3 0.4 0.3 0.4 0.2 0.5 0.3 0.5 0.2 0.4 0.3 0.4 0.2 0.5 0.3 0.5 0.2 0.5 0.2 0.5 0.2 0.5 0.2 0.5 0.2 0.9 0.3 0.1 0.1 0.5 0.2 0.5 0.2 0 0 0.5 0.2 0.5 0.2 0.4 0.1 0.1 0.1 0.5 0.2 0.5 0.2 0.4 0.1 0.1 0 0.5 0.2 0.5 0.2 0.5 0.2 0.5 0.2 0.5 0.2 0.4 0.1 0.1 0 0.5 0.1 0.5 0.1 0.1 0.1 0.4 0.1 1 0.3 0.1 0 0.4 0.1 1.1 0.2 0 0 0.5 0.1 1 0.2 0 0c0.9 0.2 1.8 0.3 2.7 0.4l0.4 0h0.2l1.1 0.2h0.3 0l1.3 0.1 0.2 0.1h0.3l1.1 0.1h0.1l1.4 0.1h0.1 0.1 0.2 1.4 1.6 0l1.5-0.1h0.1l1.5-0.1h0.1l0.6-0.1 1-0.1 1.4-0.2h0.2l1.3-0.2 0.3-0.1 0.3 0 1.1-0.2 0 0 1.5-0.3 0.4-0.1 1.1-0.2 0.6-0.2 0.9-0.2 0.7-0.2 0.7-0.2 0.8-0.2 0.7-0.2 0.6-0.2 0.9-0.3 0.2 0 1-0.3 0.2-0.1 0.7-0.2 0.8-0.3 0.6-0.3 0.7-0.3 0.7-0.3 0.7-0.3 0.6-0.3 0.7-0.3 0.7-0.3 0.5-0.3 0.9-0.4 0.4-0.2 0.8-0.4 0.5-0.3 0.7-0.4 0.7-0.4 0.5-0.3 0.7-0.4 0.7-0.4 0.6-0.3 0.6-0.4 0.6-0.4 0.7-0.5 0.3-0.3 0.8-0.5 0.4-0.4 0.7-0.5 0.6-0.5 0.6-0.4 0.4-0.4 0.8-0.7 0-0.1 1-0.9 0.1-0.1L542.7 544.3 542.7 544.3 542.7 544.3zM785.3 214.7c-73-73-173.9-118.1-285.3-118.1 -111.4 0-212.2 45.1-285.3 118.1 -73 73-118.1 173.9-118.1 285.3 0 111.4 45.1 212.2 118.1 285.2 73.1 73 173.9 118.2 285.3 118.2 111.4 0 212.2-45.2 285.3-118.2 73-73 118.2-173.8 118.2-285.2C903.4 388.6 858.2 287.7 785.3 214.7z"/></svg>